<svg width="153" height="21" viewBox="0 0 153 21" fill="none" xmlns="http://www.w3.org/2000/svg">
<path d="M141.356 11.4716V4.18632H144.931C145.393 4.17726 145.814 4.26787 146.195 4.45816C146.576 4.64845 146.879 4.92482 147.106 5.28727C147.341 5.64066 147.459 6.07107 147.459 6.5785C147.459 7.095 147.337 7.539 147.092 7.91051C146.856 8.27297 146.544 8.54934 146.154 8.73962C145.765 8.92085 145.33 9.01146 144.849 9.01146H142.403V7.63868H144.442C144.723 7.63868 144.963 7.55259 145.162 7.38043C145.361 7.20826 145.461 6.94096 145.461 6.5785C145.461 6.22511 145.357 5.9714 145.148 5.81735C144.949 5.65425 144.718 5.5727 144.455 5.5727H143.259V11.4716H141.356ZM146.018 8.1008L147.69 11.4716H145.597L144.047 8.1008H146.018ZM144.211 15.821C143.123 15.821 142.099 15.6171 141.139 15.2094C140.187 14.7926 139.349 14.2217 138.624 13.4968C137.899 12.7719 137.333 11.9337 136.925 10.9823C136.518 10.0218 136.314 8.99787 136.314 7.91051C136.314 6.82316 136.518 5.80376 136.925 4.85233C137.333 3.89183 137.899 3.04913 138.624 2.32422C139.349 1.59932 140.187 1.03299 141.139 0.62523C142.099 0.20841 143.123 0 144.211 0C145.307 0 146.331 0.20841 147.282 0.62523C148.243 1.03299 149.086 1.59932 149.81 2.32422C150.535 3.04913 151.102 3.89183 151.509 4.85233C151.917 5.80376 152.121 6.82316 152.121 7.91051C152.121 8.99787 151.917 10.0218 151.509 10.9823C151.102 11.9337 150.535 12.7719 149.81 13.4968C149.095 14.2217 148.256 14.7926 147.296 15.2094C146.335 15.6171 145.307 15.821 144.211 15.821ZM144.211 13.7279C145.289 13.7279 146.267 13.4696 147.146 12.9531C148.034 12.4276 148.737 11.7253 149.253 10.8464C149.779 9.95837 150.042 8.97975 150.042 7.91051C150.042 6.84128 149.779 5.86719 149.253 4.98825C148.737 4.10024 148.034 3.39799 147.146 2.88149C146.267 2.35594 145.289 2.09316 144.211 2.09316C143.141 2.09316 142.167 2.35594 141.288 2.88149C140.409 3.39799 139.707 4.10024 139.182 4.98825C138.665 5.86719 138.407 6.84128 138.407 7.91051C138.407 8.97975 138.665 9.95837 139.182 10.8464C139.707 11.7253 140.409 12.4276 141.288 12.9531C142.167 13.4696 143.141 13.7279 144.211 13.7279Z" fill="#0E0E0E"/>
<path d="M116.524 0.271835H121.322L125.943 8.99787H126.133L130.755 0.271835H135.553L128.172 13.3745V20.5238H123.918V13.3745L116.524 0.271835Z" fill="#0E0E0E"/>
<path d="M99.0309 3.80574V0.271835H115.667V3.80574H109.47V20.5238H105.242V3.80574H99.0309Z" fill="#0E0E0E"/>
<path d="M97.196 0.271835V20.5238H93.499L84.705 7.78818H84.5283V20.5238H80.2605V0.271835H84.0118L92.7515 13.0075H92.9282V0.271835H97.196Z" fill="#0E0E0E"/>
<path d="M73.3557 0.271835H77.6372V13.4152C77.6372 14.8922 77.2838 16.188 76.577 17.3025C75.8793 18.408 74.9007 19.2689 73.6412 19.885C72.3817 20.5012 70.9137 20.8093 69.2374 20.8093C67.561 20.8093 66.0931 20.5012 64.8336 19.885C63.5741 19.2689 62.5955 18.408 61.8977 17.3025C61.2 16.188 60.8512 14.8922 60.8512 13.4152V0.271835H65.119V13.0619C65.119 13.8321 65.2912 14.5207 65.6355 15.1278C65.9798 15.7259 66.4601 16.1971 67.0763 16.5414C67.6924 16.8767 68.4128 17.0443 69.2374 17.0443C70.071 17.0443 70.7959 16.8767 71.4121 16.5414C72.0283 16.1971 72.504 15.7259 72.8393 15.1278C73.1836 14.5207 73.3557 13.8321 73.3557 13.0619V0.271835Z" fill="#0E0E0E"/>
<path d="M49.1213 20.7957C47.3272 20.7957 45.7143 20.3879 44.2826 19.5724C42.8509 18.7569 41.7182 17.5744 40.8846 16.0249C40.0509 14.4754 39.6341 12.6043 39.6341 10.4114C39.6341 8.20048 40.0509 6.32026 40.8846 4.77077C41.7182 3.21223 42.8509 2.02973 44.2826 1.22328C45.7143 0.407758 47.3272 0 49.1213 0C50.9154 0 52.5284 0.407758 53.96 1.22328C55.3917 2.02973 56.5199 3.21223 57.3444 4.77077C58.1781 6.32026 58.5949 8.20048 58.5949 10.4114C58.5949 12.6133 58.1781 14.489 57.3444 16.0385C56.5199 17.588 55.3917 18.7705 53.96 19.586C52.5284 20.3925 50.9154 20.7957 49.1213 20.7957ZM49.1213 17.0171C50.1634 17.0171 51.0695 16.7634 51.8397 16.256C52.6099 15.7485 53.2034 15.0055 53.6202 14.0269C54.0461 13.0392 54.2591 11.8341 54.2591 10.4114C54.2591 8.97975 54.0461 7.77006 53.6202 6.78238C53.2034 5.7947 52.6099 5.04714 51.8397 4.53971C51.0695 4.03228 50.1634 3.77856 49.1213 3.77856C48.0883 3.77856 47.1867 4.03228 46.4165 4.53971C45.6463 5.04714 45.0437 5.7947 44.6088 6.78238C44.1829 7.77006 43.97 8.97975 43.97 10.4114C43.97 11.8341 44.1829 13.0392 44.6088 14.0269C45.0437 15.0055 45.6463 15.7485 46.4165 16.256C47.1867 16.7634 48.0883 17.0171 49.1213 17.0171Z" fill="#0E0E0E"/>
<path d="M29.0324 20.7957C27.2383 20.7957 25.6299 20.3879 24.2073 19.5724C22.7846 18.7569 21.661 17.5744 20.8365 16.0249C20.0119 14.4754 19.5996 12.6043 19.5996 10.4114C19.5996 8.20048 20.0119 6.32026 20.8365 4.77077C21.6701 3.21223 22.7982 2.02973 24.2209 1.22328C25.6525 0.407758 27.2564 0 29.0324 0C30.2104 0 31.3023 0.167634 32.3081 0.502902C33.3139 0.829109 34.2019 1.30936 34.9721 1.94365C35.7514 2.56888 36.3857 3.33909 36.875 4.25428C37.3643 5.16041 37.6769 6.19793 37.8128 7.36684H33.4906C33.409 6.8141 33.2459 6.31573 33.0013 5.87172C32.7657 5.42772 32.453 5.05167 32.0634 4.74359C31.6828 4.43551 31.2434 4.19991 30.745 4.03681C30.2557 3.86464 29.7165 3.77856 29.1276 3.77856C28.0946 3.77856 27.1839 4.04134 26.3956 4.5669C25.6163 5.08339 25.0092 5.83548 24.5742 6.82316C24.1484 7.80178 23.9354 8.99787 23.9354 10.4114C23.9354 11.8522 24.1529 13.0664 24.5878 14.0541C25.0228 15.0327 25.6299 15.7712 26.4092 16.2696C27.1884 16.7679 28.09 17.0171 29.114 17.0171C29.6848 17.0171 30.2149 16.9401 30.7042 16.7861C31.1935 16.632 31.6285 16.41 32.009 16.1201C32.3896 15.8301 32.7068 15.4767 32.9605 15.0599C33.2233 14.634 33.4 14.1492 33.4906 13.6055H37.8128C37.7041 14.5389 37.4277 15.4359 36.9837 16.2967C36.5488 17.1576 35.9552 17.9278 35.2032 18.6074C34.4511 19.2779 33.5585 19.8125 32.5255 20.2112C31.4925 20.6009 30.3282 20.7957 29.0324 20.7957Z" fill="#0E0E0E"/>
<path d="M4.58049 20.5238H0L6.98626 0.271835H12.5046L19.4773 20.5238H14.9104L9.82698 4.8931H9.66388L4.58049 20.5238ZM4.30865 12.559H15.1414V15.9026H4.30865V12.559Z" fill="#0E0E0E"/>
</svg>
