<svg width="102" height="72" viewBox="0 0 102 72" fill="none" xmlns="http://www.w3.org/2000/svg">
<circle cx="73.7366" cy="26.9373" r="23.7884" fill="white" fill-opacity="0.6"/>
<path d="M94.7169 51.4914C94.8666 51.0307 95.5183 51.0307 95.668 51.4914L96.5915 54.3337C96.6584 54.5397 96.8504 54.6792 97.067 54.6792H100.056C100.54 54.6792 100.741 55.299 100.35 55.5837L97.9317 57.3404C97.7565 57.4677 97.6831 57.6934 97.7501 57.8994L98.6736 60.7417C98.8233 61.2024 98.296 61.5854 97.9042 61.3007L95.4863 59.5441C95.3111 59.4167 95.0738 59.4167 94.8986 59.5441L92.4807 61.3007C92.0889 61.5854 91.5616 61.2024 91.7113 60.7417L92.6348 57.8994C92.7018 57.6934 92.6284 57.4677 92.4532 57.3404L90.0353 55.5837C89.6435 55.299 89.8449 54.6792 90.3292 54.6792H93.3179C93.5345 54.6792 93.7264 54.5397 93.7934 54.3337L94.7169 51.4914Z" fill="#141414"/>
<path d="M15.0769 37.9547C15.349 38.2269 15.2245 38.6916 14.8527 38.7912L4.54317 41.5537C4.17138 41.6533 3.83117 41.3131 3.93079 40.9413L6.69323 30.6317C6.79285 30.2599 7.25759 30.1354 7.52975 30.4076L15.0769 37.9547Z" fill="#B2DDF2"/>
<circle cx="48.3085" cy="5.08443" r="5.02144" fill="white" fill-opacity="0.6"/>
<path d="M80.1664 23.8462H22.0187C20.7835 23.8462 19.7822 24.8475 19.7822 26.0826V57.3929C19.7822 58.6281 20.7835 59.6294 22.0187 59.6294H80.1664C81.4015 59.6294 82.4028 58.6281 82.4028 57.3929V26.0826C82.4028 24.8475 81.4015 23.8462 80.1664 23.8462Z" fill="#EBEBEB" stroke="#141414" stroke-width="2" stroke-linecap="round" stroke-linejoin="round"/>
<path d="M82.5098 43.7791L64.601 59.7739L79.5098 59.7739C81.1666 59.7739 82.5098 58.4308 82.5098 56.7739L82.5098 43.7791Z" fill="#B2DDF2" stroke="black"/>
<path d="M19.6777 39.5833L37.5865 23.5884H22.6777C21.0209 23.5884 19.6777 24.9315 19.6777 26.5884V39.5833Z" fill="#B2DDF2" stroke="black"/>
<path d="M51.0923 50.6831C56.0329 50.6831 60.0381 46.6779 60.0381 41.7373C60.0381 36.7967 56.0329 32.7915 51.0923 32.7915C46.1517 32.7915 42.1465 36.7967 42.1465 41.7373C42.1465 46.6779 46.1517 50.6831 51.0923 50.6831Z" fill="#FBC73B" stroke="#141414" stroke-width="2" stroke-linecap="round" stroke-linejoin="round"/>
<path d="M64.5117 23.8462L82.4033 39.5013" stroke="#141414" stroke-width="2" stroke-linecap="round" stroke-linejoin="round"/>
<path d="M64.5117 59.6283L82.4033 43.9731" stroke="#141414" stroke-width="2" stroke-linecap="round" stroke-linejoin="round"/>
<path d="M37.6738 23.8462L19.7822 39.5013" stroke="#141414" stroke-width="2" stroke-linecap="round" stroke-linejoin="round"/>
<path d="M37.6738 59.6283L19.7822 43.9731" stroke="#141414" stroke-width="2" stroke-linecap="round" stroke-linejoin="round"/>
</svg>
