<svg width="105" height="66" viewBox="0 0 105 66" fill="none" xmlns="http://www.w3.org/2000/svg">
<circle cx="22.8601" cy="50.0227" r="15.5573" fill="white" fill-opacity="0.6"/>
<path d="M77.7444 1.52651C77.8941 1.06586 78.5458 1.06586 78.6955 1.52651L79.6609 4.49785C79.7279 4.70386 79.9198 4.84334 80.1365 4.84334H83.2607C83.7451 4.84334 83.9465 5.46315 83.5546 5.74785L81.027 7.58424C80.8518 7.71156 80.7785 7.93724 80.8454 8.14326L81.8108 11.1146C81.9605 11.5752 81.4333 11.9583 81.0414 11.6736L78.5138 9.83722C78.3386 9.7099 78.1013 9.7099 77.9261 9.83722L75.3985 11.6736C75.0066 11.9583 74.4794 11.5752 74.6291 11.1146L75.5945 8.14326C75.6615 7.93724 75.5881 7.71156 75.4129 7.58424L72.8853 5.74785C72.4934 5.46315 72.6948 4.84334 73.1792 4.84334H76.3034C76.5201 4.84334 76.712 4.70386 76.779 4.49785L77.7444 1.52651Z" fill="#141414"/>
<path d="M12.1088 54.5969C12.381 54.8691 12.2564 55.3338 11.8847 55.4334L3.83939 57.5891C3.4676 57.6887 3.12739 57.3485 3.22701 56.9768L5.38274 48.9315C5.48236 48.5597 5.94709 48.4352 6.21926 48.7073L12.1088 54.5969Z" fill="#B2DDF2"/>
<circle cx="97.8134" cy="21.4672" r="7.05852" fill="white" fill-opacity="0.6"/>
<path d="M22.6787 28.4399H79.1713V54.5104C79.1713 55.615 78.2759 56.5104 77.1713 56.5104H25.6787C24.0219 56.5104 22.6787 55.1673 22.6787 53.5104V28.4399Z" fill="#FBC73B"/>
<path d="M64.7764 28.0005L22.6726 28.0005L22.6726 20.5407C22.6726 18.8838 24.0157 17.5407 25.6726 17.5407L62.7764 17.5407C63.8809 17.5407 64.7764 18.4361 64.7764 19.5407L64.7764 28.0005Z" fill="#B2DDF2" stroke="#141414" stroke-width="2"/>
<path d="M76.5246 17.2739H24.5794C23.3841 17.2739 22.415 18.243 22.415 19.4383V54.0685C22.415 55.2638 23.3841 56.2328 24.5794 56.2328H76.5246C77.72 56.2328 78.689 55.2638 78.689 54.0685V19.4383C78.689 18.243 77.72 17.2739 76.5246 17.2739Z" stroke="#141414" stroke-width="2" stroke-linecap="round" stroke-linejoin="round"/>
<path d="M61.374 47.5747H70.0316" stroke="#141414" stroke-width="2" stroke-linecap="round" stroke-linejoin="round"/>
<path d="M48.3877 47.5747H52.7165" stroke="#141414" stroke-width="2" stroke-linecap="round" stroke-linejoin="round"/>
<path d="M22.415 28.3384H78.689" stroke="#141414" stroke-width="2" stroke-linecap="round" stroke-linejoin="round"/>
</svg>
