<svg width="101" height="91" viewBox="0 0 101 91" fill="none" xmlns="http://www.w3.org/2000/svg">
<circle cx="23.7874" cy="66.2576" r="23.7884" fill="white" fill-opacity="0.6"/>
<path d="M74.2511 1.52651C74.4008 1.06586 75.0525 1.06586 75.2022 1.52651L76.1257 4.36885C76.1926 4.57487 76.3846 4.71434 76.6012 4.71434H79.5898C80.0742 4.71434 80.2756 5.33415 79.8837 5.61885L77.4659 7.37552C77.2906 7.50284 77.2173 7.72852 77.2842 7.93453L78.2078 10.7769C78.3575 11.2375 77.8302 11.6206 77.4384 11.3359L75.0205 9.57923C74.8453 9.45191 74.608 9.45191 74.4327 9.57923L72.0149 11.3359C71.623 11.6206 71.0958 11.2375 71.2455 10.7769L72.169 7.93453C72.2359 7.72852 72.1626 7.50284 71.9874 7.37552L69.5695 5.61885C69.1777 5.33415 69.3791 4.71434 69.8634 4.71434H72.852C73.0686 4.71434 73.2606 4.57486 73.3276 4.36885L74.2511 1.52651Z" fill="#141414"/>
<path d="M15.9636 44.0524C16.2358 44.3245 16.1112 44.7893 15.7395 44.8889L5.42988 47.6513C5.0581 47.7509 4.71789 47.4107 4.81751 47.039L7.57995 36.7294C7.67957 36.3576 8.1443 36.2331 8.41647 36.5052L15.9636 44.0524Z" fill="#B2DDF2"/>
<circle cx="93.3889" cy="17.7399" r="7.25703" fill="white" fill-opacity="0.6"/>
<rect x="28.6787" y="56.4907" width="51.8211" height="8.02848" fill="#FBC73B"/>
<path d="M26.2236 34.6084H82.9542L54.5889 17.1528L26.2236 34.6084Z" fill="#FBC73B" stroke="#141414" stroke-width="2" stroke-linecap="round" stroke-linejoin="round"/>
<path d="M34.9521 34.6079V56.4273" stroke="#141414" stroke-width="2" stroke-linecap="round" stroke-linejoin="round"/>
<path d="M48.043 34.6079V56.4273" stroke="#141414" stroke-width="2" stroke-linecap="round" stroke-linejoin="round"/>
<path d="M61.1348 34.6079V56.4273" stroke="#141414" stroke-width="2" stroke-linecap="round" stroke-linejoin="round"/>
<path d="M74.2266 34.6079V56.4273" stroke="#141414" stroke-width="2" stroke-linecap="round" stroke-linejoin="round"/>
<path d="M28.4062 56.4282H80.7729" stroke="#141414" stroke-width="2" stroke-linecap="round" stroke-linejoin="round"/>
<path d="M24.042 65.1548H85.1364" stroke="#141414" stroke-width="2" stroke-linecap="round" stroke-linejoin="round"/>
</svg>
