<svg width="88" height="88" viewBox="0 0 88 88" fill="none" xmlns="http://www.w3.org/2000/svg">
<circle cx="20.8896" cy="66.4497" r="20.8965" fill="white" fill-opacity="0.6"/>
<path d="M56.293 1.52651C56.4427 1.06586 57.0944 1.06586 57.2441 1.52651L58.3671 4.98286C58.434 5.18887 58.626 5.32835 58.8426 5.32835L62.4769 5.32835C62.9612 5.32835 63.1626 5.94816 62.7708 6.23286L59.8306 8.369C59.6554 8.49633 59.582 8.72201 59.649 8.92802L60.772 12.3844C60.9217 12.845 60.3944 13.2281 60.0026 12.9434L57.0624 10.8072C56.8872 10.6799 56.6499 10.6799 56.4747 10.8072L53.5345 12.9434C53.1427 13.2281 52.6154 12.845 52.7651 12.3844L53.8881 8.92802C53.9551 8.72201 53.8817 8.49633 53.7065 8.369L50.7663 6.23286C50.3745 5.94816 50.5759 5.32835 51.0602 5.32835L54.6945 5.32835C54.9111 5.32835 55.103 5.18887 55.17 4.98286L56.293 1.52651Z" fill="#141414"/>
<path d="M29.1899 68.6922C29.462 68.9644 29.3375 69.4291 28.9657 69.5287L18.9383 72.2156C18.5665 72.3152 18.2263 71.975 18.3259 71.6032L21.0128 61.5758C21.1124 61.204 21.5771 61.0795 21.8493 61.3516L29.1899 68.6922Z" fill="#B2DDF2"/>
<circle cx="72.9738" cy="23.4948" r="6.02949" fill="white" fill-opacity="0.6"/>
<path d="M63.4217 34.2603C74.6303 35.3043 83.0752 39.7571 83.0752 45.1004C83.0752 51.2114 72.0815 56.1555 58.5083 56.1555C52.4894 56.1555 46.9619 55.1728 42.6934 53.576" fill="#B2DDF2"/>
<path d="M63.4217 34.2603C74.6303 35.3043 83.0752 39.7571 83.0752 45.1004C83.0752 51.2114 72.0815 56.1555 58.5083 56.1555C52.4894 56.1555 46.9619 55.1728 42.6934 53.576" stroke="#141414" stroke-width="2" stroke-linecap="round" stroke-linejoin="round"/>
<path d="M14.2871 30.3599V42.6433C14.2871 48.7543 25.2808 53.6984 38.854 53.6984C52.4272 53.6984 63.4209 48.7543 63.4209 42.6433V30.3599" fill="white"/>
<path d="M14.2871 30.3599V42.6433C14.2871 48.7543 25.2808 53.6984 38.854 53.6984C52.4272 53.6984 63.4209 48.7543 63.4209 42.6433V30.3599" stroke="#141414" stroke-width="2" stroke-linecap="round" stroke-linejoin="round"/>
<path d="M38.854 41.4154C52.4219 41.4154 63.4209 36.4658 63.4209 30.3603C63.4209 24.2547 52.4219 19.3052 38.854 19.3052C25.2861 19.3052 14.2871 24.2547 14.2871 30.3603C14.2871 36.4658 25.2861 41.4154 38.854 41.4154Z" fill="#FBC73B" stroke="#141414" stroke-width="2" stroke-linecap="round" stroke-linejoin="round"/>
<path d="M29.0273 40.4946V52.7781" stroke="#141414" stroke-width="2" stroke-linecap="round" stroke-linejoin="round"/>
<path d="M33.9414 53.4836V57.3835C33.9414 63.4946 44.9351 68.4387 58.5083 68.4387C72.0815 68.4387 83.0752 63.4946 83.0752 57.3835V45.1001" stroke="#141414" stroke-width="2" stroke-linecap="round" stroke-linejoin="round"/>
<path d="M68.335 55.2349V67.5183" stroke="#141414" stroke-width="2" stroke-linecap="round" stroke-linejoin="round"/>
<path d="M48.6807 40.4946V67.5182" stroke="#141414" stroke-width="2" stroke-linecap="round" stroke-linejoin="round"/>
</svg>
