<svg width="34" height="31" viewBox="0 0 34 31" fill="none" xmlns="http://www.w3.org/2000/svg">
<path d="M16.844 21.5443C19.8062 21.5443 22.2076 19.0944 22.2076 16.0723C22.2076 13.0502 19.8062 10.6003 16.844 10.6003C13.8818 10.6003 11.4805 13.0502 11.4805 16.0723C11.4805 19.0944 13.8818 21.5443 16.844 21.5443Z" stroke="black" stroke-width="1.83784" stroke-linecap="round" stroke-linejoin="round"/>
<path d="M25.9619 12.7893C27.2113 12.7872 28.4438 13.0829 29.5613 13.653C30.6788 14.223 31.6502 15.0515 32.3982 16.0725" stroke="black" stroke-width="1.83784" stroke-linecap="round" stroke-linejoin="round"/>
<path d="M1.28906 16.0725C2.03701 15.0515 3.00845 14.223 4.12592 13.653C5.24338 13.0829 6.47595 12.7872 7.72531 12.7893" stroke="black" stroke-width="1.83784" stroke-linecap="round" stroke-linejoin="round"/>
<path d="M9.12012 26.4694C9.82653 24.9934 10.9251 23.7496 12.2906 22.8795C13.6561 22.0094 15.2337 21.5481 16.8436 21.5481C18.4536 21.5481 20.0312 22.0094 21.3967 22.8795C22.7622 23.7496 23.8607 24.9934 24.5671 26.4694" stroke="black" stroke-width="1.83784" stroke-linecap="round" stroke-linejoin="round"/>
<path d="M7.72585 12.7894C6.91146 12.7902 6.11364 12.5546 5.42563 12.11C4.73762 11.6655 4.18782 11.0303 3.84048 10.2788C3.49315 9.52729 3.36261 8.69046 3.46414 7.86607C3.56566 7.04169 3.89504 6.2638 4.4138 5.62331C4.93256 4.98281 5.61927 4.50616 6.3937 4.24905C7.16812 3.99194 7.99827 3.96498 8.78716 4.17134C9.57604 4.37769 10.2911 4.80882 10.8487 5.41436C11.4063 6.0199 11.7835 6.77485 11.9362 7.59098" stroke="black" stroke-width="1.83784" stroke-linecap="round" stroke-linejoin="round"/>
<path d="M21.751 7.59098C21.9037 6.77485 22.2809 6.0199 22.8385 5.41436C23.3961 4.80882 24.1112 4.37769 24.9001 4.17134C25.6889 3.96498 26.5191 3.99194 27.2935 4.24905C28.0679 4.50616 28.7546 4.98281 29.2734 5.62331C29.7922 6.2638 30.1216 7.04169 30.2231 7.86607C30.3246 8.69046 30.1941 9.52729 29.8467 10.2788C29.4994 11.0303 28.9496 11.6655 28.2616 12.11C27.5736 12.5546 26.7758 12.7902 25.9614 12.7894" stroke="black" stroke-width="1.83784" stroke-linecap="round" stroke-linejoin="round"/>
</svg>
