<svg width="97" height="72" viewBox="0 0 97 72" fill="none" xmlns="http://www.w3.org/2000/svg">
<circle cx="65.806" cy="27.3841" r="23.7884" fill="white" fill-opacity="0.6"/>
<path d="M35.3788 1.46352C35.5284 1.00287 36.1801 1.00287 36.3298 1.46353L37.4754 4.98924C37.5423 5.19525 37.7343 5.33473 37.9509 5.33473H41.6581C42.1424 5.33473 42.3438 5.95454 41.952 6.23924L38.9528 8.41824C38.7776 8.54557 38.7042 8.77125 38.7712 8.97726L39.9167 12.503C40.0664 12.9636 39.5392 13.3467 39.1473 13.062L36.1482 10.883C35.9729 10.7557 35.7356 10.7557 35.5604 10.883L32.5612 13.062C32.1694 13.3467 31.6421 12.9636 31.7918 12.503L32.9374 8.97726C33.0043 8.77125 32.931 8.54557 32.7558 8.41824L29.7566 6.23924C29.3647 5.95453 29.5661 5.33473 30.0505 5.33473H33.7576C33.9743 5.33473 34.1662 5.19525 34.2332 4.98924L35.3788 1.46352Z" fill="#141414"/>
<path d="M15.3816 63.5324C15.6537 63.8045 15.5292 64.2692 15.1574 64.3689L4.84785 67.1313C4.47607 67.2309 4.13586 66.8907 4.23548 66.5189L6.99792 56.2094C7.09754 55.8376 7.56227 55.7131 7.83444 55.9852L15.3816 63.5324Z" fill="#B2DDF2"/>
<circle cx="90.8046" cy="19.9824" r="5.88667" fill="white"/>
<path d="M77.1969 22.3105H29.6878C28.4952 22.3105 27.5283 23.2774 27.5283 24.47V56.8626C27.5283 58.0552 28.4952 59.0221 29.6878 59.0221H77.1969C78.3895 59.0221 79.3564 58.0552 79.3564 56.8626V24.47C79.3564 23.2774 78.3895 22.3105 77.1969 22.3105Z" fill="white" fill-opacity="0.6" stroke="#181818" stroke-width="2" stroke-linecap="round" stroke-linejoin="round"/>
<path d="M77.1969 22.3105H29.6878C28.4952 22.3105 27.5283 23.2774 27.5283 24.47V56.8626C27.5283 58.0552 28.4952 59.0221 29.6878 59.0221H77.1969C78.3895 59.0221 79.3564 58.0552 79.3564 56.8626V24.47C79.3564 23.2774 78.3895 22.3105 77.1969 22.3105Z" fill="white" fill-opacity="0.6" stroke="#181818" stroke-width="2" stroke-linecap="round" stroke-linejoin="round"/>
<path d="M77.1969 48.7285H29.6878C28.4952 48.7285 27.5283 48.9996 27.5283 49.334V58.4167C27.5283 58.7511 28.4952 59.0222 29.6878 59.0222H77.1969C78.3895 59.0222 79.3564 58.7511 79.3564 58.4167V49.334C79.3564 48.9996 78.3895 48.7285 77.1969 48.7285Z" fill="#FBC73B" stroke="#181818" stroke-width="2" stroke-linecap="round" stroke-linejoin="round"/>
<path d="M62.0801 59.0215L70.7181 69.819" stroke="#181818" stroke-width="2" stroke-linecap="round" stroke-linejoin="round"/>
<path d="M44.804 59.0215L36.166 69.819" stroke="#181818" stroke-width="2" stroke-linecap="round" stroke-linejoin="round"/>
<path d="M44.8047 41.7461V48.2246" stroke="#181818" stroke-width="2" stroke-linecap="round" stroke-linejoin="round"/>
<path d="M53.4424 37.4277V48.2252" stroke="#181818" stroke-width="2" stroke-linecap="round" stroke-linejoin="round"/>
<path d="M62.0801 33.1074V48.2239" stroke="#181818" stroke-width="2" stroke-linecap="round" stroke-linejoin="round"/>
<path d="M53.4424 22.3105V15.832" stroke="#181818" stroke-width="2" stroke-linecap="round" stroke-linejoin="round"/>
</svg>
